<svg id="Layer_1" data-name="Layer 1" xmlns="http://www.w3.org/2000/svg" viewBox="0 0 594.4 228.16"><defs><style>.cls-1{fill:#fff;}</style></defs><path class="cls-1" d="M254.33,481.33c-11.14,0-20.28-9.31-20.28-21.11,0-11.64,9.14-20.94,20.28-20.94a25.91,25.91,0,0,1,14.29,4l10-20.12s-9.64-8-28.59-8c-24.77,0-47.21,20.28-47.21,45.38,0,13.24,6.37,25.07,16,33.25h57.82l-8-16.46A25.91,25.91,0,0,1,254.33,481.33Z" transform="translate(-202.8 -385.92)"/><path class="cls-1" d="M346.08,415.17c-16.79,0-26.1,14.8-26.1,14.8h-.33v-12.3H290.23V493.8h29.42V458.06c0-2.16,2.16-17.29,17.45-17.29,9.81,0,15.3,4.66,15.3,4.66l12.3-24.94A35.34,35.34,0,0,0,346.08,415.17Z" transform="translate(-202.8 -385.92)"/><path class="cls-1" d="M458.44,460.39c0-29.92-19.78-45.22-45.71-45.22-25.76,0-46.87,20.28-46.87,45.22a44.22,44.22,0,0,0,15.53,33.41h66.83a44.63,44.63,0,0,0,8.72-10.64l-21.27-10.64c-7.15,7.64-11.31,9.47-20.78,9.47-7.48,0-18.45-4.48-18.45-17.61h61.83A30.1,30.1,0,0,0,458.44,460.39Zm-61.17-12.3c.5-7.82,6.15-13.8,16.29-13.8,8.64,0,14.79,4.82,16.12,13.8Z" transform="translate(-202.8 -385.92)"/><path class="cls-1" d="M535.56,417.67v8.14c-7-6.81-16.45-10.64-27.92-10.64-24.93,0-42.39,20.28-42.39,45.22,0,13.27,4.95,25.18,13.34,33.41H535.1l.46-.5h.34v.5H565V417.67Zm-19.11,62.66c-12,0-20-8.31-20-19.94,0-11.81,8.81-20.12,20-20.12,11,0,19.78,8.31,19.78,20.12C536.23,472,527.92,480.33,516.45,480.33Z" transform="translate(-202.8 -385.92)"/><path class="cls-1" d="M632.14,476.34s-3.49,2.66-7.32,2.66c-4.65,0-6.65-3.82-6.65-11.8V440.11h18V417.67h-18V385.92H588.75v31.75h-12.3v22.44h12.3v32.74c0,7.16,1.27,14.85,5.09,20.95h43.67Z" transform="translate(-202.8 -385.92)"/><path class="cls-1" d="M761.78,417.67,741,464l-20.77-46.37H685.32l40.81,76.13h29.74l40.81-76.13Z" transform="translate(-202.8 -385.92)"/><path class="cls-1" d="M254.33,590c-11.14,0-20.28-9.31-20.28-21.11a20.89,20.89,0,0,1,14.09-20,19.81,19.81,0,0,1,6.19-1,28.42,28.42,0,0,1,7.48,1,22.67,22.67,0,0,1,6.81,3l1.49-3,8.49-17.12s-9.64-8-28.59-8a48.52,48.52,0,0,0-42,25.1,42.48,42.48,0,0,0-5.19,20.28c0,24.94,22.61,44.88,47.21,44.88,18.95,0,28.59-7.65,28.59-7.65l-10-20.44A25.91,25.91,0,0,1,254.33,590Z" transform="translate(-202.8 -385.92)"/><path class="cls-1" d="M353.26,526.32v40.56c0,16.78-4.49,23.27-16.79,23.27s-16.78-6.49-16.78-23.27V526.32H290.27V574c0,28.59,14.29,40.06,46.2,40.06s46.21-11.47,46.21-40.06v-47.7Z" transform="translate(-202.8 -385.92)"/><path class="cls-1" d="M447.71,590c-11.14,0-20.28-9.31-20.28-21.11a20.88,20.88,0,0,1,14.09-20,19.81,19.81,0,0,1,6.19-1,28.42,28.42,0,0,1,7.48,1,22.67,22.67,0,0,1,6.81,3l1.48-3L472,531.8s-9.64-8-28.58-8a48.52,48.52,0,0,0-42,25.1,42.48,42.48,0,0,0-5.19,20.28c0,24.94,22.6,44.88,47.21,44.88,18.94,0,28.58-7.65,28.58-7.65L462,586A25.91,25.91,0,0,1,447.71,590Z" transform="translate(-202.8 -385.92)"/><path class="cls-1" d="M542.15,567l18.05-18.12,22.51-22.6H544.48l-22.6,22.6-7.15,7.15V526.5H485.31v85.09h29.42V577.51l34.07,34.08h37.9Z" transform="translate(-202.8 -385.92)"/><path class="cls-1" d="M681.08,548.92c-8.13-15.4-25.58-25.1-46-25.1-20.75,0-38.3,9.7-46.46,25.1a42.58,42.58,0,0,0-4.9,20.12c0,26.26,20.61,45,51.36,45,29.42,0,50.87-18.78,50.87-45A42.69,42.69,0,0,0,681.08,548.92ZM634.94,589c-12,0-20-8.31-20-19.94,0-11.81,8.81-20.12,20-20.12,11,0,19.78,8.31,19.78,20.12C654.72,580.67,646.41,589,634.94,589Z" transform="translate(-202.8 -385.92)"/><path class="cls-1" d="M792.32,548.92c-8.14-15.4-25.59-25.1-46-25.1-20.76,0-38.31,9.7-46.47,25.1A42.58,42.58,0,0,0,695,569c0,26.26,20.61,45,51.36,45,29.42,0,50.86-18.78,50.86-45A42.81,42.81,0,0,0,792.32,548.92ZM746.17,589c-12,0-19.95-8.31-19.95-19.94,0-11.81,8.81-20.12,19.95-20.12,11,0,19.78,8.31,19.78,20.12C766,580.67,757.64,589,746.17,589Z" transform="translate(-202.8 -385.92)"/><rect class="cls-1" x="443.24" y="31.75" width="30.75" height="76.13"/></svg>